G04 #@! TF.FileFunction,Legend,Top*
%FSLAX46Y46*%
G04 Gerber Fmt 4.6, Leading zero omitted, Abs format (unit mm)*
G04 Created by KiCad (PCBNEW 4.0.7) date 05/14/18 21:45:12*
%MOMM*%
%LPD*%
G01*
G04 APERTURE LIST*
%ADD10C,0.100000*%
%ADD11C,0.200000*%
%ADD12C,0.300000*%
%ADD13C,0.150000*%
%ADD14C,0.120000*%
%ADD15C,0.203200*%
%ADD16C,0.152400*%
G04 APERTURE END LIST*
D10*
D11*
X153447619Y-99802381D02*
X153780952Y-100802381D01*
X154114286Y-99802381D01*
X154780953Y-100278571D02*
X154923810Y-100326190D01*
X154971429Y-100373810D01*
X155019048Y-100469048D01*
X155019048Y-100611905D01*
X154971429Y-100707143D01*
X154923810Y-100754762D01*
X154828572Y-100802381D01*
X154447619Y-100802381D01*
X154447619Y-99802381D01*
X154780953Y-99802381D01*
X154876191Y-99850000D01*
X154923810Y-99897619D01*
X154971429Y-99992857D01*
X154971429Y-100088095D01*
X154923810Y-100183333D01*
X154876191Y-100230952D01*
X154780953Y-100278571D01*
X154447619Y-100278571D01*
X155400000Y-100516667D02*
X155876191Y-100516667D01*
X155304762Y-100802381D02*
X155638095Y-99802381D01*
X155971429Y-100802381D01*
X156161905Y-99802381D02*
X156733334Y-99802381D01*
X156447619Y-100802381D02*
X156447619Y-99802381D01*
X157685715Y-99802381D02*
X158019048Y-100802381D01*
X158352382Y-99802381D01*
X158685715Y-100802381D02*
X158685715Y-99802381D01*
X158923810Y-99802381D01*
X159066668Y-99850000D01*
X159161906Y-99945238D01*
X159209525Y-100040476D01*
X159257144Y-100230952D01*
X159257144Y-100373810D01*
X159209525Y-100564286D01*
X159161906Y-100659524D01*
X159066668Y-100754762D01*
X158923810Y-100802381D01*
X158685715Y-100802381D01*
X159685715Y-100802381D02*
X159685715Y-99802381D01*
X159923810Y-99802381D01*
X160066668Y-99850000D01*
X160161906Y-99945238D01*
X160209525Y-100040476D01*
X160257144Y-100230952D01*
X160257144Y-100373810D01*
X160209525Y-100564286D01*
X160161906Y-100659524D01*
X160066668Y-100754762D01*
X159923810Y-100802381D01*
X159685715Y-100802381D01*
X154233334Y-101550000D02*
X154138096Y-101502381D01*
X153995239Y-101502381D01*
X153852381Y-101550000D01*
X153757143Y-101645238D01*
X153709524Y-101740476D01*
X153661905Y-101930952D01*
X153661905Y-102073810D01*
X153709524Y-102264286D01*
X153757143Y-102359524D01*
X153852381Y-102454762D01*
X153995239Y-102502381D01*
X154090477Y-102502381D01*
X154233334Y-102454762D01*
X154280953Y-102407143D01*
X154280953Y-102073810D01*
X154090477Y-102073810D01*
X154709524Y-102502381D02*
X154709524Y-101502381D01*
X155280953Y-102502381D01*
X155280953Y-101502381D01*
X155757143Y-102502381D02*
X155757143Y-101502381D01*
X155995238Y-101502381D01*
X156138096Y-101550000D01*
X156233334Y-101645238D01*
X156280953Y-101740476D01*
X156328572Y-101930952D01*
X156328572Y-102073810D01*
X156280953Y-102264286D01*
X156233334Y-102359524D01*
X156138096Y-102454762D01*
X155995238Y-102502381D01*
X155757143Y-102502381D01*
X158042858Y-101550000D02*
X157947620Y-101502381D01*
X157804763Y-101502381D01*
X157661905Y-101550000D01*
X157566667Y-101645238D01*
X157519048Y-101740476D01*
X157471429Y-101930952D01*
X157471429Y-102073810D01*
X157519048Y-102264286D01*
X157566667Y-102359524D01*
X157661905Y-102454762D01*
X157804763Y-102502381D01*
X157900001Y-102502381D01*
X158042858Y-102454762D01*
X158090477Y-102407143D01*
X158090477Y-102073810D01*
X157900001Y-102073810D01*
X158519048Y-102502381D02*
X158519048Y-101502381D01*
X159090477Y-102502381D01*
X159090477Y-101502381D01*
X159566667Y-102502381D02*
X159566667Y-101502381D01*
X159804762Y-101502381D01*
X159947620Y-101550000D01*
X160042858Y-101645238D01*
X160090477Y-101740476D01*
X160138096Y-101930952D01*
X160138096Y-102073810D01*
X160090477Y-102264286D01*
X160042858Y-102359524D01*
X159947620Y-102454762D01*
X159804762Y-102502381D01*
X159566667Y-102502381D01*
X149571429Y-96352381D02*
X149000000Y-96352381D01*
X149285714Y-96352381D02*
X149285714Y-95352381D01*
X149190476Y-95495238D01*
X149095238Y-95590476D01*
X149000000Y-95638095D01*
X149904762Y-95352381D02*
X150523810Y-95352381D01*
X150190476Y-95733333D01*
X150333334Y-95733333D01*
X150428572Y-95780952D01*
X150476191Y-95828571D01*
X150523810Y-95923810D01*
X150523810Y-96161905D01*
X150476191Y-96257143D01*
X150428572Y-96304762D01*
X150333334Y-96352381D01*
X150047619Y-96352381D01*
X149952381Y-96304762D01*
X149904762Y-96257143D01*
X150809524Y-95352381D02*
X151142857Y-96352381D01*
X151476191Y-95352381D01*
X152571429Y-96352381D02*
X152571429Y-95352381D01*
X152904763Y-96066667D01*
X153238096Y-95352381D01*
X153238096Y-96352381D01*
X154142858Y-96352381D02*
X154142858Y-95828571D01*
X154095239Y-95733333D01*
X154000001Y-95685714D01*
X153809524Y-95685714D01*
X153714286Y-95733333D01*
X154142858Y-96304762D02*
X154047620Y-96352381D01*
X153809524Y-96352381D01*
X153714286Y-96304762D01*
X153666667Y-96209524D01*
X153666667Y-96114286D01*
X153714286Y-96019048D01*
X153809524Y-95971429D01*
X154047620Y-95971429D01*
X154142858Y-95923810D01*
X154523810Y-96352381D02*
X155047620Y-95685714D01*
X154523810Y-95685714D02*
X155047620Y-96352381D01*
X126190476Y-104197619D02*
X126238095Y-104150000D01*
X126333333Y-104102381D01*
X126571429Y-104102381D01*
X126666667Y-104150000D01*
X126714286Y-104197619D01*
X126761905Y-104292857D01*
X126761905Y-104388095D01*
X126714286Y-104530952D01*
X126142857Y-105102381D01*
X126761905Y-105102381D01*
X128380953Y-105054762D02*
X128285715Y-105102381D01*
X128095238Y-105102381D01*
X128000000Y-105054762D01*
X127952381Y-105007143D01*
X127904762Y-104911905D01*
X127904762Y-104626190D01*
X127952381Y-104530952D01*
X128000000Y-104483333D01*
X128095238Y-104435714D01*
X128285715Y-104435714D01*
X128380953Y-104483333D01*
X129190477Y-105054762D02*
X129095239Y-105102381D01*
X128904762Y-105102381D01*
X128809524Y-105054762D01*
X128761905Y-104959524D01*
X128761905Y-104578571D01*
X128809524Y-104483333D01*
X128904762Y-104435714D01*
X129095239Y-104435714D01*
X129190477Y-104483333D01*
X129238096Y-104578571D01*
X129238096Y-104673810D01*
X128761905Y-104769048D01*
X129809524Y-105102381D02*
X129714286Y-105054762D01*
X129666667Y-104959524D01*
X129666667Y-104102381D01*
X130333334Y-105102381D02*
X130238096Y-105054762D01*
X130190477Y-104959524D01*
X130190477Y-104102381D01*
X131952383Y-105102381D02*
X131476192Y-105102381D01*
X131476192Y-104102381D01*
X132285716Y-105102381D02*
X132285716Y-104435714D01*
X132285716Y-104102381D02*
X132238097Y-104150000D01*
X132285716Y-104197619D01*
X132333335Y-104150000D01*
X132285716Y-104102381D01*
X132285716Y-104197619D01*
X132761906Y-104721429D02*
X133523811Y-104721429D01*
X134000001Y-105102381D02*
X134000001Y-104102381D01*
X134380954Y-104102381D01*
X134476192Y-104150000D01*
X134523811Y-104197619D01*
X134571430Y-104292857D01*
X134571430Y-104435714D01*
X134523811Y-104530952D01*
X134476192Y-104578571D01*
X134380954Y-104626190D01*
X134000001Y-104626190D01*
X135142858Y-105102381D02*
X135047620Y-105054762D01*
X135000001Y-105007143D01*
X134952382Y-104911905D01*
X134952382Y-104626190D01*
X135000001Y-104530952D01*
X135047620Y-104483333D01*
X135142858Y-104435714D01*
X135285716Y-104435714D01*
X135380954Y-104483333D01*
X135428573Y-104530952D01*
X135476192Y-104626190D01*
X135476192Y-104911905D01*
X135428573Y-105007143D01*
X135380954Y-105054762D01*
X135285716Y-105102381D01*
X135142858Y-105102381D01*
X126380952Y-106230952D02*
X126285714Y-106183333D01*
X126238095Y-106135714D01*
X126190476Y-106040476D01*
X126190476Y-105992857D01*
X126238095Y-105897619D01*
X126285714Y-105850000D01*
X126380952Y-105802381D01*
X126571429Y-105802381D01*
X126666667Y-105850000D01*
X126714286Y-105897619D01*
X126761905Y-105992857D01*
X126761905Y-106040476D01*
X126714286Y-106135714D01*
X126666667Y-106183333D01*
X126571429Y-106230952D01*
X126380952Y-106230952D01*
X126285714Y-106278571D01*
X126238095Y-106326190D01*
X126190476Y-106421429D01*
X126190476Y-106611905D01*
X126238095Y-106707143D01*
X126285714Y-106754762D01*
X126380952Y-106802381D01*
X126571429Y-106802381D01*
X126666667Y-106754762D01*
X126714286Y-106707143D01*
X126761905Y-106611905D01*
X126761905Y-106421429D01*
X126714286Y-106326190D01*
X126666667Y-106278571D01*
X126571429Y-106230952D01*
X127190476Y-106707143D02*
X127238095Y-106754762D01*
X127190476Y-106802381D01*
X127142857Y-106754762D01*
X127190476Y-106707143D01*
X127190476Y-106802381D01*
X128095238Y-106135714D02*
X128095238Y-106802381D01*
X127857142Y-105754762D02*
X127619047Y-106469048D01*
X128238095Y-106469048D01*
X128476190Y-105802381D02*
X128809523Y-106802381D01*
X129142857Y-105802381D01*
D12*
X139271429Y-107078571D02*
X139771429Y-108578571D01*
X140271429Y-107078571D01*
X140771429Y-108007143D02*
X141914286Y-108007143D01*
X134171429Y-106978571D02*
X134671429Y-108478571D01*
X135171429Y-106978571D01*
X135671429Y-107907143D02*
X136814286Y-107907143D01*
X136242857Y-108478571D02*
X136242857Y-107335714D01*
D11*
X137761904Y-91500000D02*
X137857142Y-91547619D01*
X137999999Y-91547619D01*
X138142857Y-91500000D01*
X138238095Y-91404762D01*
X138285714Y-91309524D01*
X138333333Y-91119048D01*
X138333333Y-90976190D01*
X138285714Y-90785714D01*
X138238095Y-90690476D01*
X138142857Y-90595238D01*
X137999999Y-90547619D01*
X137904761Y-90547619D01*
X137761904Y-90595238D01*
X137714285Y-90642857D01*
X137714285Y-90976190D01*
X137904761Y-90976190D01*
X137285714Y-90547619D02*
X137285714Y-91547619D01*
X136714285Y-90547619D01*
X136714285Y-91547619D01*
X136238095Y-90547619D02*
X136238095Y-91547619D01*
X136000000Y-91547619D01*
X135857142Y-91500000D01*
X135761904Y-91404762D01*
X135714285Y-91309524D01*
X135666666Y-91119048D01*
X135666666Y-90976190D01*
X135714285Y-90785714D01*
X135761904Y-90690476D01*
X135857142Y-90595238D01*
X136000000Y-90547619D01*
X136238095Y-90547619D01*
X144333333Y-91547619D02*
X144000000Y-90547619D01*
X143666666Y-91547619D01*
X143333333Y-90547619D02*
X143333333Y-91547619D01*
X143095238Y-91547619D01*
X142952380Y-91500000D01*
X142857142Y-91404762D01*
X142809523Y-91309524D01*
X142761904Y-91119048D01*
X142761904Y-90976190D01*
X142809523Y-90785714D01*
X142857142Y-90690476D01*
X142952380Y-90595238D01*
X143095238Y-90547619D01*
X143333333Y-90547619D01*
X142333333Y-90547619D02*
X142333333Y-91547619D01*
X142095238Y-91547619D01*
X141952380Y-91500000D01*
X141857142Y-91404762D01*
X141809523Y-91309524D01*
X141761904Y-91119048D01*
X141761904Y-90976190D01*
X141809523Y-90785714D01*
X141857142Y-90690476D01*
X141952380Y-90595238D01*
X142095238Y-90547619D01*
X142333333Y-90547619D01*
D13*
X161000000Y-117000000D02*
X161000000Y-82000000D01*
X125000000Y-117000000D02*
X125000000Y-82000000D01*
X125000000Y-82000000D02*
X161000000Y-82000000D01*
X125000000Y-117000000D02*
X161000000Y-117000000D01*
D14*
X129750000Y-97100000D02*
X130750000Y-97100000D01*
X130750000Y-95400000D02*
X129750000Y-95400000D01*
X129750000Y-102100000D02*
X130750000Y-102100000D01*
X130750000Y-100400000D02*
X129750000Y-100400000D01*
X136668000Y-95404000D02*
X139868000Y-95404000D01*
X139868000Y-96904000D02*
X136668000Y-96904000D01*
X139868000Y-96904000D02*
X139868000Y-95404000D01*
X147412000Y-100082000D02*
X146212000Y-100082000D01*
X146212000Y-98322000D02*
X147412000Y-98322000D01*
X147400000Y-102830000D02*
X146200000Y-102830000D01*
X146200000Y-101070000D02*
X147400000Y-101070000D01*
D13*
X136443000Y-102376000D02*
X138893000Y-102376000D01*
X135718000Y-99076000D02*
X138893000Y-99076000D01*
D15*
X161100000Y-93000000D02*
X151000000Y-93000000D01*
X151000000Y-93000000D02*
X151000000Y-87000000D01*
X151000000Y-87000000D02*
X161200000Y-87000000D01*
X157600000Y-85500000D02*
X157600000Y-94500000D01*
X146600000Y-85500000D02*
X146600000Y-94500000D01*
X146600000Y-94500000D02*
X161100000Y-94500000D01*
X161100000Y-94500000D02*
X161100000Y-85500000D01*
X161100000Y-85500000D02*
X146600000Y-85500000D01*
D14*
X145700000Y-82500000D02*
X145700000Y-90100000D01*
X145700000Y-90100000D02*
X134300000Y-90100000D01*
X134300000Y-90100000D02*
X134300000Y-82500000D01*
X132300000Y-116800000D02*
X132300000Y-109200000D01*
X132300000Y-109200000D02*
X143700000Y-109200000D01*
X143700000Y-109200000D02*
X143700000Y-116800000D01*
D13*
X126785334Y-96615143D02*
X126737715Y-96662762D01*
X126594858Y-96710381D01*
X126499620Y-96710381D01*
X126356762Y-96662762D01*
X126261524Y-96567524D01*
X126213905Y-96472286D01*
X126166286Y-96281810D01*
X126166286Y-96138952D01*
X126213905Y-95948476D01*
X126261524Y-95853238D01*
X126356762Y-95758000D01*
X126499620Y-95710381D01*
X126594858Y-95710381D01*
X126737715Y-95758000D01*
X126785334Y-95805619D01*
X127737715Y-96710381D02*
X127166286Y-96710381D01*
X127452000Y-96710381D02*
X127452000Y-95710381D01*
X127356762Y-95853238D01*
X127261524Y-95948476D01*
X127166286Y-95996095D01*
X126535334Y-101453143D02*
X126487715Y-101500762D01*
X126344858Y-101548381D01*
X126249620Y-101548381D01*
X126106762Y-101500762D01*
X126011524Y-101405524D01*
X125963905Y-101310286D01*
X125916286Y-101119810D01*
X125916286Y-100976952D01*
X125963905Y-100786476D01*
X126011524Y-100691238D01*
X126106762Y-100596000D01*
X126249620Y-100548381D01*
X126344858Y-100548381D01*
X126487715Y-100596000D01*
X126535334Y-100643619D01*
X126916286Y-100643619D02*
X126963905Y-100596000D01*
X127059143Y-100548381D01*
X127297239Y-100548381D01*
X127392477Y-100596000D01*
X127440096Y-100643619D01*
X127487715Y-100738857D01*
X127487715Y-100834095D01*
X127440096Y-100976952D01*
X126868667Y-101548381D01*
X127487715Y-101548381D01*
X133511905Y-96702381D02*
X133511905Y-95702381D01*
X133750000Y-95702381D01*
X133892858Y-95750000D01*
X133988096Y-95845238D01*
X134035715Y-95940476D01*
X134083334Y-96130952D01*
X134083334Y-96273810D01*
X134035715Y-96464286D01*
X133988096Y-96559524D01*
X133892858Y-96654762D01*
X133750000Y-96702381D01*
X133511905Y-96702381D01*
X135035715Y-96702381D02*
X134464286Y-96702381D01*
X134750000Y-96702381D02*
X134750000Y-95702381D01*
X134654762Y-95845238D01*
X134559524Y-95940476D01*
X134464286Y-95988095D01*
X142833334Y-99952381D02*
X142500000Y-99476190D01*
X142261905Y-99952381D02*
X142261905Y-98952381D01*
X142642858Y-98952381D01*
X142738096Y-99000000D01*
X142785715Y-99047619D01*
X142833334Y-99142857D01*
X142833334Y-99285714D01*
X142785715Y-99380952D01*
X142738096Y-99428571D01*
X142642858Y-99476190D01*
X142261905Y-99476190D01*
X143785715Y-99952381D02*
X143214286Y-99952381D01*
X143500000Y-99952381D02*
X143500000Y-98952381D01*
X143404762Y-99095238D01*
X143309524Y-99190476D01*
X143214286Y-99238095D01*
X142833334Y-102452381D02*
X142500000Y-101976190D01*
X142261905Y-102452381D02*
X142261905Y-101452381D01*
X142642858Y-101452381D01*
X142738096Y-101500000D01*
X142785715Y-101547619D01*
X142833334Y-101642857D01*
X142833334Y-101785714D01*
X142785715Y-101880952D01*
X142738096Y-101928571D01*
X142642858Y-101976190D01*
X142261905Y-101976190D01*
X143214286Y-101547619D02*
X143261905Y-101500000D01*
X143357143Y-101452381D01*
X143595239Y-101452381D01*
X143690477Y-101500000D01*
X143738096Y-101547619D01*
X143785715Y-101642857D01*
X143785715Y-101738095D01*
X143738096Y-101880952D01*
X143166667Y-102452381D01*
X143785715Y-102452381D01*
X133738095Y-100202381D02*
X133738095Y-101011905D01*
X133785714Y-101107143D01*
X133833333Y-101154762D01*
X133928571Y-101202381D01*
X134119048Y-101202381D01*
X134214286Y-101154762D01*
X134261905Y-101107143D01*
X134309524Y-101011905D01*
X134309524Y-100202381D01*
X135309524Y-101202381D02*
X134738095Y-101202381D01*
X135023809Y-101202381D02*
X135023809Y-100202381D01*
X134928571Y-100345238D01*
X134833333Y-100440476D01*
X134738095Y-100488095D01*
D16*
X146746001Y-94732714D02*
X146746001Y-95277000D01*
X146709715Y-95385857D01*
X146637144Y-95458429D01*
X146528287Y-95494714D01*
X146455715Y-95494714D01*
X147508000Y-95494714D02*
X147072572Y-95494714D01*
X147290286Y-95494714D02*
X147290286Y-94732714D01*
X147217715Y-94841571D01*
X147145143Y-94914143D01*
X147072572Y-94950429D01*
D13*
X132666667Y-88952381D02*
X132666667Y-89666667D01*
X132619047Y-89809524D01*
X132523809Y-89904762D01*
X132380952Y-89952381D01*
X132285714Y-89952381D01*
X133095238Y-89047619D02*
X133142857Y-89000000D01*
X133238095Y-88952381D01*
X133476191Y-88952381D01*
X133571429Y-89000000D01*
X133619048Y-89047619D01*
X133666667Y-89142857D01*
X133666667Y-89238095D01*
X133619048Y-89380952D01*
X133047619Y-89952381D01*
X133666667Y-89952381D01*
X142266667Y-104752381D02*
X142266667Y-105466667D01*
X142219047Y-105609524D01*
X142123809Y-105704762D01*
X141980952Y-105752381D01*
X141885714Y-105752381D01*
X142647619Y-104752381D02*
X143266667Y-104752381D01*
X142933333Y-105133333D01*
X143076191Y-105133333D01*
X143171429Y-105180952D01*
X143219048Y-105228571D01*
X143266667Y-105323810D01*
X143266667Y-105561905D01*
X143219048Y-105657143D01*
X143171429Y-105704762D01*
X143076191Y-105752381D01*
X142790476Y-105752381D01*
X142695238Y-105704762D01*
X142647619Y-105657143D01*
X130566667Y-109152381D02*
X130566667Y-109866667D01*
X130519047Y-110009524D01*
X130423809Y-110104762D01*
X130280952Y-110152381D01*
X130185714Y-110152381D01*
X131471429Y-109485714D02*
X131471429Y-110152381D01*
X131233333Y-109104762D02*
X130995238Y-109819048D01*
X131614286Y-109819048D01*
M02*
