M48
;DRILL file {KiCad 4.0.7} date 05/14/18 21:45:19
;FORMAT={-:-/ absolute / inch / decimal}
FMAT,2
INCH,TZ
T1C0.012
T2C0.039
T3C0.058
T4C0.063
T5C0.118
T6C0.126
%
G90
G05
M72
T1
X5.0787Y-3.8504
X5.0787Y-4.0492
X5.38Y-3.8656
X5.38Y-4.0656
X5.4047Y-3.9412
X5.4047Y-3.99
X5.4353Y-3.9412
X5.4353Y-3.99
X5.46Y-3.8656
X5.46Y-4.0656
X5.561Y-3.9528
X5.8957Y-3.9035
T2
X5.8189Y-4.1339
X5.8189Y-4.252
X5.937Y-4.1339
X5.937Y-4.252
T3
X5.3346Y-4.4685
X5.4134Y-3.378
X5.5315Y-4.4685
X5.6102Y-3.378
T4
X5.8268Y-3.5433
X5.9449Y-3.3583
X6.063Y-3.5433
T5
X5.878Y-4.422
T6
X5.0591Y-3.3661
X5.0591Y-4.4685
X6.2008Y-4.4685
T0
M30
