G04 #@! TF.FileFunction,Copper,L1,Top,Signal*
%FSLAX46Y46*%
G04 Gerber Fmt 4.6, Leading zero omitted, Abs format (unit mm)*
G04 Created by KiCad (PCBNEW 4.0.7) date 05/14/18 21:45:12*
%MOMM*%
%LPD*%
G01*
G04 APERTURE LIST*
%ADD10C,0.100000*%
%ADD11C,0.150000*%
%ADD12R,1.500000X1.250000*%
%ADD13R,1.500000X1.300000*%
%ADD14R,0.650000X0.300000*%
%ADD15R,0.775000X1.240000*%
%ADD16C,2.600000*%
%ADD17R,2.400000X2.400000*%
%ADD18C,2.400000*%
%ADD19C,1.500000*%
%ADD20C,0.600000*%
%ADD21C,0.250000*%
%ADD22C,0.500000*%
%ADD23C,0.600000*%
%ADD24C,0.400000*%
G04 APERTURE END LIST*
D10*
D11*
X161000000Y-117000000D02*
X161000000Y-82000000D01*
X125000000Y-117000000D02*
X125000000Y-82000000D01*
X125000000Y-82000000D02*
X161000000Y-82000000D01*
X125000000Y-117000000D02*
X161000000Y-117000000D01*
D12*
X131500000Y-96250000D03*
X129000000Y-96250000D03*
X131500000Y-101250000D03*
X129000000Y-101250000D03*
D13*
X139018000Y-96154000D03*
X136318000Y-96154000D03*
X145462000Y-99202000D03*
X148162000Y-99202000D03*
X145450000Y-101950000D03*
X148150000Y-101950000D03*
D14*
X136118000Y-99726000D03*
X136118000Y-100226000D03*
X136118000Y-100726000D03*
X136118000Y-101226000D03*
X136118000Y-101726000D03*
X139218000Y-101726000D03*
X139218000Y-101226000D03*
X139218000Y-100726000D03*
X139218000Y-100226000D03*
X139218000Y-99726000D03*
D15*
X138055500Y-101346000D03*
X138055500Y-100106000D03*
X137280500Y-101346000D03*
X137280500Y-100106000D03*
D16*
X148000000Y-90000000D03*
X154000000Y-90000000D03*
X151000000Y-85300000D03*
D17*
X142500000Y-85800000D03*
D18*
X137500000Y-85800000D03*
D19*
X150800000Y-108000000D03*
X147800000Y-108000000D03*
X150800000Y-105000000D03*
X147800000Y-105000000D03*
D17*
X135500000Y-113500000D03*
D18*
X140500000Y-113500000D03*
D20*
X129000000Y-102850000D03*
X141250000Y-100400000D03*
X149750000Y-99150000D03*
X129000000Y-97800000D03*
X138055500Y-101346000D03*
X138684000Y-103266000D03*
X137280500Y-101346000D03*
X136652000Y-103266000D03*
X138055500Y-100106000D03*
X138684000Y-98186000D03*
X137280500Y-100106000D03*
X136652000Y-98186000D03*
D21*
X129000000Y-101250000D02*
X129000000Y-102850000D01*
X129000000Y-96250000D02*
X129000000Y-97800000D01*
X141250000Y-100400000D02*
X140924000Y-100726000D01*
X140924000Y-100726000D02*
X139218000Y-100726000D01*
X148162000Y-99202000D02*
X149698000Y-99202000D01*
X149698000Y-99202000D02*
X149750000Y-99150000D01*
D22*
X138684000Y-103266000D02*
X138055500Y-102637500D01*
X138055500Y-101346000D02*
X138055500Y-102637500D01*
X136652000Y-103266000D02*
X137280500Y-102637500D01*
X137280500Y-101346000D02*
X137280500Y-102637500D01*
X138684000Y-98186000D02*
X138055500Y-98814500D01*
X138055500Y-100106000D02*
X138055500Y-98814500D01*
X137280500Y-100106000D02*
X137280500Y-98814500D01*
X136652000Y-98186000D02*
X137280500Y-98814500D01*
X140000000Y-113000000D02*
X140500000Y-113500000D01*
D23*
X155700000Y-102500000D02*
X155700000Y-97700000D01*
X155700000Y-97700000D02*
X148000000Y-90000000D01*
X153200000Y-105000000D02*
X155700000Y-102500000D01*
X150800000Y-105000000D02*
X153200000Y-105000000D01*
D21*
X136118000Y-100226000D02*
X136118000Y-99726000D01*
X151000000Y-101500000D02*
X151000000Y-98108000D01*
X148150000Y-101950000D02*
X150550000Y-101950000D01*
X150550000Y-101950000D02*
X151000000Y-101500000D01*
X142154000Y-96154000D02*
X139018000Y-96154000D01*
X151000000Y-98108000D02*
X149892000Y-97000000D01*
X149892000Y-97000000D02*
X143000000Y-97000000D01*
X143000000Y-97000000D02*
X142154000Y-96154000D01*
X139218000Y-99726000D02*
X141716000Y-99726000D01*
X142240000Y-99202000D02*
X145462000Y-99202000D01*
X141716000Y-99726000D02*
X142240000Y-99202000D01*
X143550000Y-101226000D02*
X144438000Y-101226000D01*
X139218000Y-101226000D02*
X143550000Y-101226000D01*
X143550000Y-101226000D02*
X144726000Y-101226000D01*
X144726000Y-101226000D02*
X145450000Y-101950000D01*
X136118000Y-100726000D02*
X135474000Y-100726000D01*
X136118000Y-101226000D02*
X135176000Y-101226000D01*
X136118000Y-100726000D02*
X136118000Y-101226000D01*
D24*
G36*
X160325000Y-99800000D02*
X151725000Y-99800000D01*
X151725000Y-98108000D01*
X151699501Y-97979806D01*
X151669813Y-97830554D01*
X151512653Y-97595348D01*
X150404652Y-96487348D01*
X150169446Y-96330187D01*
X150123415Y-96321031D01*
X149892000Y-96275000D01*
X143300305Y-96275000D01*
X142666652Y-95641348D01*
X142431446Y-95484187D01*
X142385415Y-95475031D01*
X142154000Y-95429000D01*
X140365642Y-95429000D01*
X140337917Y-95281654D01*
X140206510Y-95077442D01*
X140006007Y-94940444D01*
X139768000Y-94892246D01*
X138268000Y-94892246D01*
X138045654Y-94934083D01*
X137841442Y-95065490D01*
X137704444Y-95265993D01*
X137656246Y-95504000D01*
X137656246Y-96804000D01*
X137698083Y-97026346D01*
X137829490Y-97230558D01*
X138029993Y-97367556D01*
X138216566Y-97405338D01*
X138174857Y-97422572D01*
X137921462Y-97675525D01*
X137871095Y-97796823D01*
X137668000Y-97999918D01*
X137465062Y-97796980D01*
X137415428Y-97676857D01*
X137162475Y-97423462D01*
X136831806Y-97286157D01*
X136473764Y-97285844D01*
X136142857Y-97422572D01*
X135889462Y-97675525D01*
X135752157Y-98006194D01*
X135751844Y-98364236D01*
X135888572Y-98695143D01*
X136141525Y-98948538D01*
X136262823Y-98998905D01*
X136403511Y-99139593D01*
X136329444Y-99247993D01*
X136281246Y-99486000D01*
X136281246Y-99800000D01*
X125675000Y-99800000D01*
X125675000Y-95625000D01*
X127638246Y-95625000D01*
X127638246Y-96875000D01*
X127680083Y-97097346D01*
X127811490Y-97301558D01*
X128011993Y-97438556D01*
X128162891Y-97469114D01*
X128100157Y-97620194D01*
X128099844Y-97978236D01*
X128236572Y-98309143D01*
X128489525Y-98562538D01*
X128820194Y-98699843D01*
X129178236Y-98700156D01*
X129509143Y-98563428D01*
X129762538Y-98310475D01*
X129899843Y-97979806D01*
X129900156Y-97621764D01*
X129837563Y-97470278D01*
X129972346Y-97444917D01*
X130176558Y-97313510D01*
X130313556Y-97113007D01*
X130361754Y-96875000D01*
X130361754Y-95625000D01*
X130319917Y-95402654D01*
X130188510Y-95198442D01*
X129988007Y-95061444D01*
X129750000Y-95013246D01*
X128250000Y-95013246D01*
X128027654Y-95055083D01*
X127823442Y-95186490D01*
X127686444Y-95386993D01*
X127638246Y-95625000D01*
X125675000Y-95625000D01*
X125675000Y-91298618D01*
X146772093Y-91298618D01*
X146902159Y-91596114D01*
X147596533Y-91894742D01*
X148352332Y-91904913D01*
X149054491Y-91625079D01*
X149097841Y-91596114D01*
X149227907Y-91298618D01*
X148000000Y-90070711D01*
X146772093Y-91298618D01*
X125675000Y-91298618D01*
X125675000Y-90352332D01*
X146095087Y-90352332D01*
X146374921Y-91054491D01*
X146403886Y-91097841D01*
X146701382Y-91227907D01*
X147929289Y-90000000D01*
X148070711Y-90000000D01*
X149298618Y-91227907D01*
X149596114Y-91097841D01*
X149894742Y-90403467D01*
X149895107Y-90376275D01*
X152099671Y-90376275D01*
X152388319Y-91074857D01*
X152922331Y-91609802D01*
X153620409Y-91899669D01*
X154376275Y-91900329D01*
X155074857Y-91611681D01*
X155609802Y-91077669D01*
X155899669Y-90379591D01*
X155900329Y-89623725D01*
X155611681Y-88925143D01*
X155077669Y-88390198D01*
X154379591Y-88100331D01*
X153623725Y-88099671D01*
X152925143Y-88388319D01*
X152390198Y-88922331D01*
X152100331Y-89620409D01*
X152099671Y-90376275D01*
X149895107Y-90376275D01*
X149904913Y-89647668D01*
X149625079Y-88945509D01*
X149596114Y-88902159D01*
X149298618Y-88772093D01*
X148070711Y-90000000D01*
X147929289Y-90000000D01*
X146701382Y-88772093D01*
X146403886Y-88902159D01*
X146105258Y-89596533D01*
X146095087Y-90352332D01*
X125675000Y-90352332D01*
X125675000Y-88701382D01*
X146772093Y-88701382D01*
X148000000Y-89929289D01*
X149227907Y-88701382D01*
X149097841Y-88403886D01*
X148403467Y-88105258D01*
X147647668Y-88095087D01*
X146945509Y-88374921D01*
X146902159Y-88403886D01*
X146772093Y-88701382D01*
X125675000Y-88701382D01*
X125675000Y-85935687D01*
X126299619Y-85935687D01*
X126633843Y-86744572D01*
X127252173Y-87363982D01*
X128060473Y-87699618D01*
X128935687Y-87700381D01*
X129744572Y-87366157D01*
X130363982Y-86747827D01*
X130609534Y-86156471D01*
X135699688Y-86156471D01*
X135973145Y-86818286D01*
X136479051Y-87325076D01*
X137140387Y-87599687D01*
X137856471Y-87600312D01*
X138518286Y-87326855D01*
X139025076Y-86820949D01*
X139299687Y-86159613D01*
X139299826Y-86000000D01*
X140700000Y-86000000D01*
X140700000Y-87119348D01*
X140791345Y-87339873D01*
X140960128Y-87508656D01*
X141180653Y-87600000D01*
X142300000Y-87600000D01*
X142450000Y-87450000D01*
X142450000Y-85850000D01*
X142550000Y-85850000D01*
X142550000Y-87450000D01*
X142700000Y-87600000D01*
X143819347Y-87600000D01*
X144039872Y-87508656D01*
X144208655Y-87339873D01*
X144300000Y-87119348D01*
X144300000Y-86000000D01*
X144150000Y-85850000D01*
X142550000Y-85850000D01*
X142450000Y-85850000D01*
X140850000Y-85850000D01*
X140700000Y-86000000D01*
X139299826Y-86000000D01*
X139300312Y-85443529D01*
X139026855Y-84781714D01*
X138726319Y-84480652D01*
X140700000Y-84480652D01*
X140700000Y-85600000D01*
X140850000Y-85750000D01*
X142450000Y-85750000D01*
X142450000Y-84150000D01*
X142550000Y-84150000D01*
X142550000Y-85750000D01*
X144150000Y-85750000D01*
X144223725Y-85676275D01*
X149099671Y-85676275D01*
X149388319Y-86374857D01*
X149922331Y-86909802D01*
X150620409Y-87199669D01*
X151376275Y-87200329D01*
X152074857Y-86911681D01*
X152609802Y-86377669D01*
X152899669Y-85679591D01*
X152900329Y-84923725D01*
X152611681Y-84225143D01*
X152077669Y-83690198D01*
X151379591Y-83400331D01*
X150623725Y-83399671D01*
X149925143Y-83688319D01*
X149390198Y-84222331D01*
X149100331Y-84920409D01*
X149099671Y-85676275D01*
X144223725Y-85676275D01*
X144300000Y-85600000D01*
X144300000Y-84480652D01*
X144208655Y-84260127D01*
X144039872Y-84091344D01*
X143819347Y-84000000D01*
X142700000Y-84000000D01*
X142550000Y-84150000D01*
X142450000Y-84150000D01*
X142300000Y-84000000D01*
X141180653Y-84000000D01*
X140960128Y-84091344D01*
X140791345Y-84260127D01*
X140700000Y-84480652D01*
X138726319Y-84480652D01*
X138520949Y-84274924D01*
X137859613Y-84000313D01*
X137143529Y-83999688D01*
X136481714Y-84273145D01*
X135974924Y-84779051D01*
X135700313Y-85440387D01*
X135699688Y-86156471D01*
X130609534Y-86156471D01*
X130699618Y-85939527D01*
X130700381Y-85064313D01*
X130366157Y-84255428D01*
X129747827Y-83636018D01*
X128939527Y-83300382D01*
X128064313Y-83299619D01*
X127255428Y-83633843D01*
X126636018Y-84252173D01*
X126300382Y-85060473D01*
X126299619Y-85935687D01*
X125675000Y-85935687D01*
X125675000Y-82675000D01*
X160325000Y-82675000D01*
X160325000Y-99800000D01*
X160325000Y-99800000D01*
G37*
X160325000Y-99800000D02*
X151725000Y-99800000D01*
X151725000Y-98108000D01*
X151699501Y-97979806D01*
X151669813Y-97830554D01*
X151512653Y-97595348D01*
X150404652Y-96487348D01*
X150169446Y-96330187D01*
X150123415Y-96321031D01*
X149892000Y-96275000D01*
X143300305Y-96275000D01*
X142666652Y-95641348D01*
X142431446Y-95484187D01*
X142385415Y-95475031D01*
X142154000Y-95429000D01*
X140365642Y-95429000D01*
X140337917Y-95281654D01*
X140206510Y-95077442D01*
X140006007Y-94940444D01*
X139768000Y-94892246D01*
X138268000Y-94892246D01*
X138045654Y-94934083D01*
X137841442Y-95065490D01*
X137704444Y-95265993D01*
X137656246Y-95504000D01*
X137656246Y-96804000D01*
X137698083Y-97026346D01*
X137829490Y-97230558D01*
X138029993Y-97367556D01*
X138216566Y-97405338D01*
X138174857Y-97422572D01*
X137921462Y-97675525D01*
X137871095Y-97796823D01*
X137668000Y-97999918D01*
X137465062Y-97796980D01*
X137415428Y-97676857D01*
X137162475Y-97423462D01*
X136831806Y-97286157D01*
X136473764Y-97285844D01*
X136142857Y-97422572D01*
X135889462Y-97675525D01*
X135752157Y-98006194D01*
X135751844Y-98364236D01*
X135888572Y-98695143D01*
X136141525Y-98948538D01*
X136262823Y-98998905D01*
X136403511Y-99139593D01*
X136329444Y-99247993D01*
X136281246Y-99486000D01*
X136281246Y-99800000D01*
X125675000Y-99800000D01*
X125675000Y-95625000D01*
X127638246Y-95625000D01*
X127638246Y-96875000D01*
X127680083Y-97097346D01*
X127811490Y-97301558D01*
X128011993Y-97438556D01*
X128162891Y-97469114D01*
X128100157Y-97620194D01*
X128099844Y-97978236D01*
X128236572Y-98309143D01*
X128489525Y-98562538D01*
X128820194Y-98699843D01*
X129178236Y-98700156D01*
X129509143Y-98563428D01*
X129762538Y-98310475D01*
X129899843Y-97979806D01*
X129900156Y-97621764D01*
X129837563Y-97470278D01*
X129972346Y-97444917D01*
X130176558Y-97313510D01*
X130313556Y-97113007D01*
X130361754Y-96875000D01*
X130361754Y-95625000D01*
X130319917Y-95402654D01*
X130188510Y-95198442D01*
X129988007Y-95061444D01*
X129750000Y-95013246D01*
X128250000Y-95013246D01*
X128027654Y-95055083D01*
X127823442Y-95186490D01*
X127686444Y-95386993D01*
X127638246Y-95625000D01*
X125675000Y-95625000D01*
X125675000Y-91298618D01*
X146772093Y-91298618D01*
X146902159Y-91596114D01*
X147596533Y-91894742D01*
X148352332Y-91904913D01*
X149054491Y-91625079D01*
X149097841Y-91596114D01*
X149227907Y-91298618D01*
X148000000Y-90070711D01*
X146772093Y-91298618D01*
X125675000Y-91298618D01*
X125675000Y-90352332D01*
X146095087Y-90352332D01*
X146374921Y-91054491D01*
X146403886Y-91097841D01*
X146701382Y-91227907D01*
X147929289Y-90000000D01*
X148070711Y-90000000D01*
X149298618Y-91227907D01*
X149596114Y-91097841D01*
X149894742Y-90403467D01*
X149895107Y-90376275D01*
X152099671Y-90376275D01*
X152388319Y-91074857D01*
X152922331Y-91609802D01*
X153620409Y-91899669D01*
X154376275Y-91900329D01*
X155074857Y-91611681D01*
X155609802Y-91077669D01*
X155899669Y-90379591D01*
X155900329Y-89623725D01*
X155611681Y-88925143D01*
X155077669Y-88390198D01*
X154379591Y-88100331D01*
X153623725Y-88099671D01*
X152925143Y-88388319D01*
X152390198Y-88922331D01*
X152100331Y-89620409D01*
X152099671Y-90376275D01*
X149895107Y-90376275D01*
X149904913Y-89647668D01*
X149625079Y-88945509D01*
X149596114Y-88902159D01*
X149298618Y-88772093D01*
X148070711Y-90000000D01*
X147929289Y-90000000D01*
X146701382Y-88772093D01*
X146403886Y-88902159D01*
X146105258Y-89596533D01*
X146095087Y-90352332D01*
X125675000Y-90352332D01*
X125675000Y-88701382D01*
X146772093Y-88701382D01*
X148000000Y-89929289D01*
X149227907Y-88701382D01*
X149097841Y-88403886D01*
X148403467Y-88105258D01*
X147647668Y-88095087D01*
X146945509Y-88374921D01*
X146902159Y-88403886D01*
X146772093Y-88701382D01*
X125675000Y-88701382D01*
X125675000Y-85935687D01*
X126299619Y-85935687D01*
X126633843Y-86744572D01*
X127252173Y-87363982D01*
X128060473Y-87699618D01*
X128935687Y-87700381D01*
X129744572Y-87366157D01*
X130363982Y-86747827D01*
X130609534Y-86156471D01*
X135699688Y-86156471D01*
X135973145Y-86818286D01*
X136479051Y-87325076D01*
X137140387Y-87599687D01*
X137856471Y-87600312D01*
X138518286Y-87326855D01*
X139025076Y-86820949D01*
X139299687Y-86159613D01*
X139299826Y-86000000D01*
X140700000Y-86000000D01*
X140700000Y-87119348D01*
X140791345Y-87339873D01*
X140960128Y-87508656D01*
X141180653Y-87600000D01*
X142300000Y-87600000D01*
X142450000Y-87450000D01*
X142450000Y-85850000D01*
X142550000Y-85850000D01*
X142550000Y-87450000D01*
X142700000Y-87600000D01*
X143819347Y-87600000D01*
X144039872Y-87508656D01*
X144208655Y-87339873D01*
X144300000Y-87119348D01*
X144300000Y-86000000D01*
X144150000Y-85850000D01*
X142550000Y-85850000D01*
X142450000Y-85850000D01*
X140850000Y-85850000D01*
X140700000Y-86000000D01*
X139299826Y-86000000D01*
X139300312Y-85443529D01*
X139026855Y-84781714D01*
X138726319Y-84480652D01*
X140700000Y-84480652D01*
X140700000Y-85600000D01*
X140850000Y-85750000D01*
X142450000Y-85750000D01*
X142450000Y-84150000D01*
X142550000Y-84150000D01*
X142550000Y-85750000D01*
X144150000Y-85750000D01*
X144223725Y-85676275D01*
X149099671Y-85676275D01*
X149388319Y-86374857D01*
X149922331Y-86909802D01*
X150620409Y-87199669D01*
X151376275Y-87200329D01*
X152074857Y-86911681D01*
X152609802Y-86377669D01*
X152899669Y-85679591D01*
X152900329Y-84923725D01*
X152611681Y-84225143D01*
X152077669Y-83690198D01*
X151379591Y-83400331D01*
X150623725Y-83399671D01*
X149925143Y-83688319D01*
X149390198Y-84222331D01*
X149100331Y-84920409D01*
X149099671Y-85676275D01*
X144223725Y-85676275D01*
X144300000Y-85600000D01*
X144300000Y-84480652D01*
X144208655Y-84260127D01*
X144039872Y-84091344D01*
X143819347Y-84000000D01*
X142700000Y-84000000D01*
X142550000Y-84150000D01*
X142450000Y-84150000D01*
X142300000Y-84000000D01*
X141180653Y-84000000D01*
X140960128Y-84091344D01*
X140791345Y-84260127D01*
X140700000Y-84480652D01*
X138726319Y-84480652D01*
X138520949Y-84274924D01*
X137859613Y-84000313D01*
X137143529Y-83999688D01*
X136481714Y-84273145D01*
X135974924Y-84779051D01*
X135700313Y-85440387D01*
X135699688Y-86156471D01*
X130609534Y-86156471D01*
X130699618Y-85939527D01*
X130700381Y-85064313D01*
X130366157Y-84255428D01*
X129747827Y-83636018D01*
X128939527Y-83300382D01*
X128064313Y-83299619D01*
X127255428Y-83633843D01*
X126636018Y-84252173D01*
X126300382Y-85060473D01*
X126299619Y-85935687D01*
X125675000Y-85935687D01*
X125675000Y-82675000D01*
X160325000Y-82675000D01*
X160325000Y-99800000D01*
G36*
X135354490Y-100802558D02*
X135554993Y-100939556D01*
X135732826Y-100975568D01*
X135570654Y-101006083D01*
X135366442Y-101137490D01*
X135229444Y-101337993D01*
X135181246Y-101576000D01*
X135181246Y-101876000D01*
X135223083Y-102098346D01*
X135354490Y-102302558D01*
X135554993Y-102439556D01*
X135793000Y-102487754D01*
X136178719Y-102487754D01*
X136142857Y-102502572D01*
X135889462Y-102755525D01*
X135752157Y-103086194D01*
X135751844Y-103444236D01*
X135888572Y-103775143D01*
X136141525Y-104028538D01*
X136472194Y-104165843D01*
X136830236Y-104166156D01*
X137161143Y-104029428D01*
X137414538Y-103776475D01*
X137464905Y-103655177D01*
X137668000Y-103452082D01*
X137870938Y-103655020D01*
X137920572Y-103775143D01*
X138173525Y-104028538D01*
X138504194Y-104165843D01*
X138862236Y-104166156D01*
X139033413Y-104095427D01*
X146971795Y-104095427D01*
X147800000Y-104923632D01*
X148628205Y-104095427D01*
X148564746Y-103855548D01*
X148068570Y-103650009D01*
X147531507Y-103649993D01*
X147035320Y-103855505D01*
X147035254Y-103855548D01*
X146971795Y-104095427D01*
X139033413Y-104095427D01*
X139193143Y-104029428D01*
X139446538Y-103776475D01*
X139583843Y-103445806D01*
X139584156Y-103087764D01*
X139447428Y-102756857D01*
X139194475Y-102503462D01*
X139156646Y-102487754D01*
X139543000Y-102487754D01*
X139765346Y-102445917D01*
X139969558Y-102314510D01*
X140106556Y-102114007D01*
X140139566Y-101951000D01*
X144088246Y-101951000D01*
X144088246Y-102600000D01*
X144130083Y-102822346D01*
X144261490Y-103026558D01*
X144461993Y-103163556D01*
X144700000Y-103211754D01*
X146200000Y-103211754D01*
X146422346Y-103169917D01*
X146626558Y-103038510D01*
X146763556Y-102838007D01*
X146799568Y-102660174D01*
X146830083Y-102822346D01*
X146961490Y-103026558D01*
X147161993Y-103163556D01*
X147400000Y-103211754D01*
X148800000Y-103211754D01*
X148800000Y-104197040D01*
X148704573Y-104171795D01*
X147876368Y-105000000D01*
X148704573Y-105828205D01*
X148800000Y-105802960D01*
X148800000Y-107090890D01*
X148565712Y-106856193D01*
X148069710Y-106650235D01*
X147532647Y-106649766D01*
X147036285Y-106854858D01*
X146656193Y-107234288D01*
X146450235Y-107730290D01*
X146449766Y-108267353D01*
X146654858Y-108763715D01*
X147034288Y-109143807D01*
X147530290Y-109349765D01*
X148067353Y-109350234D01*
X148563715Y-109145142D01*
X148800000Y-108909269D01*
X148800000Y-110254393D01*
X148112000Y-110538669D01*
X147520745Y-111128893D01*
X147200366Y-111900452D01*
X147199637Y-112735883D01*
X147518669Y-113508000D01*
X148108893Y-114099255D01*
X148800000Y-114386227D01*
X148800000Y-116325000D01*
X125695195Y-116325000D01*
X125688339Y-113935687D01*
X126299619Y-113935687D01*
X126633843Y-114744572D01*
X127252173Y-115363982D01*
X128060473Y-115699618D01*
X128935687Y-115700381D01*
X129744572Y-115366157D01*
X130363982Y-114747827D01*
X130699618Y-113939527D01*
X130699823Y-113704000D01*
X133700000Y-113704000D01*
X133700000Y-114819348D01*
X133791345Y-115039873D01*
X133960128Y-115208656D01*
X134180653Y-115300000D01*
X135296000Y-115300000D01*
X135446000Y-115150000D01*
X135446000Y-113554000D01*
X135554000Y-113554000D01*
X135554000Y-115150000D01*
X135704000Y-115300000D01*
X136819347Y-115300000D01*
X137039872Y-115208656D01*
X137208655Y-115039873D01*
X137300000Y-114819348D01*
X137300000Y-113856471D01*
X138699688Y-113856471D01*
X138973145Y-114518286D01*
X139479051Y-115025076D01*
X140140387Y-115299687D01*
X140856471Y-115300312D01*
X141518286Y-115026855D01*
X142025076Y-114520949D01*
X142299687Y-113859613D01*
X142300312Y-113143529D01*
X142026855Y-112481714D01*
X141520949Y-111974924D01*
X140859613Y-111700313D01*
X140143529Y-111699688D01*
X139481714Y-111973145D01*
X138974924Y-112479051D01*
X138700313Y-113140387D01*
X138699688Y-113856471D01*
X137300000Y-113856471D01*
X137300000Y-113704000D01*
X137150000Y-113554000D01*
X135554000Y-113554000D01*
X135446000Y-113554000D01*
X133850000Y-113554000D01*
X133700000Y-113704000D01*
X130699823Y-113704000D01*
X130700381Y-113064313D01*
X130366157Y-112255428D01*
X130291512Y-112180652D01*
X133700000Y-112180652D01*
X133700000Y-113296000D01*
X133850000Y-113446000D01*
X135446000Y-113446000D01*
X135446000Y-111850000D01*
X135554000Y-111850000D01*
X135554000Y-113446000D01*
X137150000Y-113446000D01*
X137300000Y-113296000D01*
X137300000Y-112180652D01*
X137208655Y-111960127D01*
X137039872Y-111791344D01*
X136819347Y-111700000D01*
X135704000Y-111700000D01*
X135554000Y-111850000D01*
X135446000Y-111850000D01*
X135296000Y-111700000D01*
X134180653Y-111700000D01*
X133960128Y-111791344D01*
X133791345Y-111960127D01*
X133700000Y-112180652D01*
X130291512Y-112180652D01*
X129747827Y-111636018D01*
X128939527Y-111300382D01*
X128064313Y-111299619D01*
X127255428Y-111633843D01*
X126636018Y-112252173D01*
X126300382Y-113060473D01*
X126299619Y-113935687D01*
X125688339Y-113935687D01*
X125675000Y-109287181D01*
X125675000Y-105904573D01*
X146971795Y-105904573D01*
X147035254Y-106144452D01*
X147531430Y-106349991D01*
X148068493Y-106350007D01*
X148564680Y-106144495D01*
X148564746Y-106144452D01*
X148628205Y-105904573D01*
X147800000Y-105076368D01*
X146971795Y-105904573D01*
X125675000Y-105904573D01*
X125675000Y-105268493D01*
X146449993Y-105268493D01*
X146655505Y-105764680D01*
X146655548Y-105764746D01*
X146895427Y-105828205D01*
X147723632Y-105000000D01*
X146895427Y-104171795D01*
X146655548Y-104235254D01*
X146450009Y-104731430D01*
X146449993Y-105268493D01*
X125675000Y-105268493D01*
X125675000Y-100774284D01*
X127638246Y-100768032D01*
X127638246Y-101875000D01*
X127680083Y-102097346D01*
X127811490Y-102301558D01*
X128011993Y-102438556D01*
X128182042Y-102472992D01*
X128100157Y-102670194D01*
X128099844Y-103028236D01*
X128236572Y-103359143D01*
X128489525Y-103612538D01*
X128820194Y-103749843D01*
X129178236Y-103750156D01*
X129509143Y-103613428D01*
X129762538Y-103360475D01*
X129899843Y-103029806D01*
X129900156Y-102671764D01*
X129818394Y-102473885D01*
X129972346Y-102444917D01*
X130176558Y-102313510D01*
X130313556Y-102113007D01*
X130361754Y-101875000D01*
X130361754Y-100759358D01*
X135316538Y-100743579D01*
X135354490Y-100802558D01*
X135354490Y-100802558D01*
G37*
X135354490Y-100802558D02*
X135554993Y-100939556D01*
X135732826Y-100975568D01*
X135570654Y-101006083D01*
X135366442Y-101137490D01*
X135229444Y-101337993D01*
X135181246Y-101576000D01*
X135181246Y-101876000D01*
X135223083Y-102098346D01*
X135354490Y-102302558D01*
X135554993Y-102439556D01*
X135793000Y-102487754D01*
X136178719Y-102487754D01*
X136142857Y-102502572D01*
X135889462Y-102755525D01*
X135752157Y-103086194D01*
X135751844Y-103444236D01*
X135888572Y-103775143D01*
X136141525Y-104028538D01*
X136472194Y-104165843D01*
X136830236Y-104166156D01*
X137161143Y-104029428D01*
X137414538Y-103776475D01*
X137464905Y-103655177D01*
X137668000Y-103452082D01*
X137870938Y-103655020D01*
X137920572Y-103775143D01*
X138173525Y-104028538D01*
X138504194Y-104165843D01*
X138862236Y-104166156D01*
X139033413Y-104095427D01*
X146971795Y-104095427D01*
X147800000Y-104923632D01*
X148628205Y-104095427D01*
X148564746Y-103855548D01*
X148068570Y-103650009D01*
X147531507Y-103649993D01*
X147035320Y-103855505D01*
X147035254Y-103855548D01*
X146971795Y-104095427D01*
X139033413Y-104095427D01*
X139193143Y-104029428D01*
X139446538Y-103776475D01*
X139583843Y-103445806D01*
X139584156Y-103087764D01*
X139447428Y-102756857D01*
X139194475Y-102503462D01*
X139156646Y-102487754D01*
X139543000Y-102487754D01*
X139765346Y-102445917D01*
X139969558Y-102314510D01*
X140106556Y-102114007D01*
X140139566Y-101951000D01*
X144088246Y-101951000D01*
X144088246Y-102600000D01*
X144130083Y-102822346D01*
X144261490Y-103026558D01*
X144461993Y-103163556D01*
X144700000Y-103211754D01*
X146200000Y-103211754D01*
X146422346Y-103169917D01*
X146626558Y-103038510D01*
X146763556Y-102838007D01*
X146799568Y-102660174D01*
X146830083Y-102822346D01*
X146961490Y-103026558D01*
X147161993Y-103163556D01*
X147400000Y-103211754D01*
X148800000Y-103211754D01*
X148800000Y-104197040D01*
X148704573Y-104171795D01*
X147876368Y-105000000D01*
X148704573Y-105828205D01*
X148800000Y-105802960D01*
X148800000Y-107090890D01*
X148565712Y-106856193D01*
X148069710Y-106650235D01*
X147532647Y-106649766D01*
X147036285Y-106854858D01*
X146656193Y-107234288D01*
X146450235Y-107730290D01*
X146449766Y-108267353D01*
X146654858Y-108763715D01*
X147034288Y-109143807D01*
X147530290Y-109349765D01*
X148067353Y-109350234D01*
X148563715Y-109145142D01*
X148800000Y-108909269D01*
X148800000Y-110254393D01*
X148112000Y-110538669D01*
X147520745Y-111128893D01*
X147200366Y-111900452D01*
X147199637Y-112735883D01*
X147518669Y-113508000D01*
X148108893Y-114099255D01*
X148800000Y-114386227D01*
X148800000Y-116325000D01*
X125695195Y-116325000D01*
X125688339Y-113935687D01*
X126299619Y-113935687D01*
X126633843Y-114744572D01*
X127252173Y-115363982D01*
X128060473Y-115699618D01*
X128935687Y-115700381D01*
X129744572Y-115366157D01*
X130363982Y-114747827D01*
X130699618Y-113939527D01*
X130699823Y-113704000D01*
X133700000Y-113704000D01*
X133700000Y-114819348D01*
X133791345Y-115039873D01*
X133960128Y-115208656D01*
X134180653Y-115300000D01*
X135296000Y-115300000D01*
X135446000Y-115150000D01*
X135446000Y-113554000D01*
X135554000Y-113554000D01*
X135554000Y-115150000D01*
X135704000Y-115300000D01*
X136819347Y-115300000D01*
X137039872Y-115208656D01*
X137208655Y-115039873D01*
X137300000Y-114819348D01*
X137300000Y-113856471D01*
X138699688Y-113856471D01*
X138973145Y-114518286D01*
X139479051Y-115025076D01*
X140140387Y-115299687D01*
X140856471Y-115300312D01*
X141518286Y-115026855D01*
X142025076Y-114520949D01*
X142299687Y-113859613D01*
X142300312Y-113143529D01*
X142026855Y-112481714D01*
X141520949Y-111974924D01*
X140859613Y-111700313D01*
X140143529Y-111699688D01*
X139481714Y-111973145D01*
X138974924Y-112479051D01*
X138700313Y-113140387D01*
X138699688Y-113856471D01*
X137300000Y-113856471D01*
X137300000Y-113704000D01*
X137150000Y-113554000D01*
X135554000Y-113554000D01*
X135446000Y-113554000D01*
X133850000Y-113554000D01*
X133700000Y-113704000D01*
X130699823Y-113704000D01*
X130700381Y-113064313D01*
X130366157Y-112255428D01*
X130291512Y-112180652D01*
X133700000Y-112180652D01*
X133700000Y-113296000D01*
X133850000Y-113446000D01*
X135446000Y-113446000D01*
X135446000Y-111850000D01*
X135554000Y-111850000D01*
X135554000Y-113446000D01*
X137150000Y-113446000D01*
X137300000Y-113296000D01*
X137300000Y-112180652D01*
X137208655Y-111960127D01*
X137039872Y-111791344D01*
X136819347Y-111700000D01*
X135704000Y-111700000D01*
X135554000Y-111850000D01*
X135446000Y-111850000D01*
X135296000Y-111700000D01*
X134180653Y-111700000D01*
X133960128Y-111791344D01*
X133791345Y-111960127D01*
X133700000Y-112180652D01*
X130291512Y-112180652D01*
X129747827Y-111636018D01*
X128939527Y-111300382D01*
X128064313Y-111299619D01*
X127255428Y-111633843D01*
X126636018Y-112252173D01*
X126300382Y-113060473D01*
X126299619Y-113935687D01*
X125688339Y-113935687D01*
X125675000Y-109287181D01*
X125675000Y-105904573D01*
X146971795Y-105904573D01*
X147035254Y-106144452D01*
X147531430Y-106349991D01*
X148068493Y-106350007D01*
X148564680Y-106144495D01*
X148564746Y-106144452D01*
X148628205Y-105904573D01*
X147800000Y-105076368D01*
X146971795Y-105904573D01*
X125675000Y-105904573D01*
X125675000Y-105268493D01*
X146449993Y-105268493D01*
X146655505Y-105764680D01*
X146655548Y-105764746D01*
X146895427Y-105828205D01*
X147723632Y-105000000D01*
X146895427Y-104171795D01*
X146655548Y-104235254D01*
X146450009Y-104731430D01*
X146449993Y-105268493D01*
X125675000Y-105268493D01*
X125675000Y-100774284D01*
X127638246Y-100768032D01*
X127638246Y-101875000D01*
X127680083Y-102097346D01*
X127811490Y-102301558D01*
X128011993Y-102438556D01*
X128182042Y-102472992D01*
X128100157Y-102670194D01*
X128099844Y-103028236D01*
X128236572Y-103359143D01*
X128489525Y-103612538D01*
X128820194Y-103749843D01*
X129178236Y-103750156D01*
X129509143Y-103613428D01*
X129762538Y-103360475D01*
X129899843Y-103029806D01*
X129900156Y-102671764D01*
X129818394Y-102473885D01*
X129972346Y-102444917D01*
X130176558Y-102313510D01*
X130313556Y-102113007D01*
X130361754Y-101875000D01*
X130361754Y-100759358D01*
X135316538Y-100743579D01*
X135354490Y-100802558D01*
M02*
