G04 #@! TF.FileFunction,Copper,L2,Bot,Signal*
%FSLAX46Y46*%
G04 Gerber Fmt 4.6, Leading zero omitted, Abs format (unit mm)*
G04 Created by KiCad (PCBNEW 4.0.7) date 05/14/18 21:45:12*
%MOMM*%
%LPD*%
G01*
G04 APERTURE LIST*
%ADD10C,0.100000*%
%ADD11C,0.150000*%
%ADD12C,2.600000*%
%ADD13R,2.400000X2.400000*%
%ADD14C,2.400000*%
%ADD15C,1.500000*%
%ADD16C,0.600000*%
%ADD17C,0.254000*%
G04 APERTURE END LIST*
D10*
D11*
X161000000Y-117000000D02*
X161000000Y-82000000D01*
X125000000Y-117000000D02*
X125000000Y-82000000D01*
X125000000Y-82000000D02*
X161000000Y-82000000D01*
X125000000Y-117000000D02*
X161000000Y-117000000D01*
D12*
X148000000Y-90000000D03*
X154000000Y-90000000D03*
X151000000Y-85300000D03*
D13*
X142500000Y-85800000D03*
D14*
X137500000Y-85800000D03*
D15*
X150800000Y-108000000D03*
X147800000Y-108000000D03*
X150800000Y-105000000D03*
X147800000Y-105000000D03*
D13*
X135500000Y-113500000D03*
D14*
X140500000Y-113500000D03*
D16*
X129000000Y-102850000D03*
X141250000Y-100400000D03*
X149750000Y-99150000D03*
X129000000Y-97800000D03*
X138055500Y-101346000D03*
X138684000Y-103266000D03*
X137280500Y-101346000D03*
X136652000Y-103266000D03*
X138055500Y-100106000D03*
X138684000Y-98186000D03*
X137280500Y-100106000D03*
X136652000Y-98186000D03*
D17*
G36*
X160398000Y-116398000D02*
X125602000Y-116398000D01*
X125602000Y-113921230D01*
X126372632Y-113921230D01*
X126695766Y-114703274D01*
X127293578Y-115302131D01*
X128075057Y-115626630D01*
X128921230Y-115627368D01*
X129703274Y-115304234D01*
X130302131Y-114706422D01*
X130626630Y-113924943D01*
X130627368Y-113078770D01*
X130305587Y-112300000D01*
X133762676Y-112300000D01*
X133762676Y-114700000D01*
X133799423Y-114895294D01*
X133914842Y-115074660D01*
X134090951Y-115194990D01*
X134300000Y-115237324D01*
X136700000Y-115237324D01*
X136895294Y-115200577D01*
X137074660Y-115085158D01*
X137194990Y-114909049D01*
X137230110Y-114735622D01*
X139438326Y-114735622D01*
X139567045Y-114993363D01*
X140209547Y-115236714D01*
X140896268Y-115215667D01*
X141432955Y-114993363D01*
X141561674Y-114735622D01*
X140500000Y-113673948D01*
X139438326Y-114735622D01*
X137230110Y-114735622D01*
X137237324Y-114700000D01*
X137237324Y-113209547D01*
X138763286Y-113209547D01*
X138784333Y-113896268D01*
X139006637Y-114432955D01*
X139264378Y-114561674D01*
X140326052Y-113500000D01*
X140673948Y-113500000D01*
X141735622Y-114561674D01*
X141993363Y-114432955D01*
X142236714Y-113790453D01*
X142215667Y-113103732D01*
X142057310Y-112721426D01*
X147272649Y-112721426D01*
X147580591Y-113466703D01*
X148150298Y-114037405D01*
X148895036Y-114346647D01*
X149701426Y-114347351D01*
X150446703Y-114039409D01*
X150565088Y-113921230D01*
X155372632Y-113921230D01*
X155695766Y-114703274D01*
X156293578Y-115302131D01*
X157075057Y-115626630D01*
X157921230Y-115627368D01*
X158703274Y-115304234D01*
X159302131Y-114706422D01*
X159626630Y-113924943D01*
X159627368Y-113078770D01*
X159304234Y-112296726D01*
X158706422Y-111697869D01*
X157924943Y-111373370D01*
X157078770Y-111372632D01*
X156296726Y-111695766D01*
X155697869Y-112293578D01*
X155373370Y-113075057D01*
X155372632Y-113921230D01*
X150565088Y-113921230D01*
X151017405Y-113469702D01*
X151326647Y-112724964D01*
X151327351Y-111918574D01*
X151019409Y-111173297D01*
X150449702Y-110602595D01*
X149704964Y-110293353D01*
X148898574Y-110292649D01*
X148153297Y-110600591D01*
X147582595Y-111170298D01*
X147273353Y-111915036D01*
X147272649Y-112721426D01*
X142057310Y-112721426D01*
X141993363Y-112567045D01*
X141735622Y-112438326D01*
X140673948Y-113500000D01*
X140326052Y-113500000D01*
X139264378Y-112438326D01*
X139006637Y-112567045D01*
X138763286Y-113209547D01*
X137237324Y-113209547D01*
X137237324Y-112300000D01*
X137230622Y-112264378D01*
X139438326Y-112264378D01*
X140500000Y-113326052D01*
X141561674Y-112264378D01*
X141432955Y-112006637D01*
X140790453Y-111763286D01*
X140103732Y-111784333D01*
X139567045Y-112006637D01*
X139438326Y-112264378D01*
X137230622Y-112264378D01*
X137200577Y-112104706D01*
X137085158Y-111925340D01*
X136909049Y-111805010D01*
X136700000Y-111762676D01*
X134300000Y-111762676D01*
X134104706Y-111799423D01*
X133925340Y-111914842D01*
X133805010Y-112090951D01*
X133762676Y-112300000D01*
X130305587Y-112300000D01*
X130304234Y-112296726D01*
X129706422Y-111697869D01*
X128924943Y-111373370D01*
X128078770Y-111372632D01*
X127296726Y-111695766D01*
X126697869Y-112293578D01*
X126373370Y-113075057D01*
X126372632Y-113921230D01*
X125602000Y-113921230D01*
X125602000Y-108909895D01*
X147064053Y-108909895D01*
X147137625Y-109120941D01*
X147617011Y-109289094D01*
X148124254Y-109260994D01*
X148462375Y-109120941D01*
X148535947Y-108909895D01*
X150064053Y-108909895D01*
X150137625Y-109120941D01*
X150617011Y-109289094D01*
X151124254Y-109260994D01*
X151462375Y-109120941D01*
X151535947Y-108909895D01*
X150800000Y-108173948D01*
X150064053Y-108909895D01*
X148535947Y-108909895D01*
X147800000Y-108173948D01*
X147064053Y-108909895D01*
X125602000Y-108909895D01*
X125602000Y-107817011D01*
X146510906Y-107817011D01*
X146539006Y-108324254D01*
X146679059Y-108662375D01*
X146890105Y-108735947D01*
X147626052Y-108000000D01*
X147973948Y-108000000D01*
X148709895Y-108735947D01*
X148920941Y-108662375D01*
X149089094Y-108182989D01*
X149068820Y-107817011D01*
X149510906Y-107817011D01*
X149539006Y-108324254D01*
X149679059Y-108662375D01*
X149890105Y-108735947D01*
X150626052Y-108000000D01*
X150973948Y-108000000D01*
X151709895Y-108735947D01*
X151920941Y-108662375D01*
X152089094Y-108182989D01*
X152060994Y-107675746D01*
X151920941Y-107337625D01*
X151709895Y-107264053D01*
X150973948Y-108000000D01*
X150626052Y-108000000D01*
X149890105Y-107264053D01*
X149679059Y-107337625D01*
X149510906Y-107817011D01*
X149068820Y-107817011D01*
X149060994Y-107675746D01*
X148920941Y-107337625D01*
X148709895Y-107264053D01*
X147973948Y-108000000D01*
X147626052Y-108000000D01*
X146890105Y-107264053D01*
X146679059Y-107337625D01*
X146510906Y-107817011D01*
X125602000Y-107817011D01*
X125602000Y-107090105D01*
X147064053Y-107090105D01*
X147800000Y-107826052D01*
X148535947Y-107090105D01*
X150064053Y-107090105D01*
X150800000Y-107826052D01*
X151535947Y-107090105D01*
X151462375Y-106879059D01*
X150982989Y-106710906D01*
X150475746Y-106739006D01*
X150137625Y-106879059D01*
X150064053Y-107090105D01*
X148535947Y-107090105D01*
X148462375Y-106879059D01*
X147982989Y-106710906D01*
X147475746Y-106739006D01*
X147137625Y-106879059D01*
X147064053Y-107090105D01*
X125602000Y-107090105D01*
X125602000Y-105252897D01*
X146522779Y-105252897D01*
X146716781Y-105722417D01*
X147075693Y-106081957D01*
X147544875Y-106276778D01*
X148052897Y-106277221D01*
X148522417Y-106083219D01*
X148881957Y-105724307D01*
X149076778Y-105255125D01*
X149076779Y-105252897D01*
X149522779Y-105252897D01*
X149716781Y-105722417D01*
X150075693Y-106081957D01*
X150544875Y-106276778D01*
X151052897Y-106277221D01*
X151522417Y-106083219D01*
X151881957Y-105724307D01*
X152076778Y-105255125D01*
X152077221Y-104747103D01*
X151883219Y-104277583D01*
X151524307Y-103918043D01*
X151055125Y-103723222D01*
X150547103Y-103722779D01*
X150077583Y-103916781D01*
X149718043Y-104275693D01*
X149523222Y-104744875D01*
X149522779Y-105252897D01*
X149076779Y-105252897D01*
X149077221Y-104747103D01*
X148883219Y-104277583D01*
X148524307Y-103918043D01*
X148055125Y-103723222D01*
X147547103Y-103722779D01*
X147077583Y-103916781D01*
X146718043Y-104275693D01*
X146523222Y-104744875D01*
X146522779Y-105252897D01*
X125602000Y-105252897D01*
X125602000Y-90361818D01*
X146172684Y-90361818D01*
X146450242Y-91033560D01*
X146963736Y-91547952D01*
X147634993Y-91826682D01*
X148361818Y-91827316D01*
X149033560Y-91549758D01*
X149275827Y-91307913D01*
X152866035Y-91307913D01*
X153006976Y-91576041D01*
X153685690Y-91836085D01*
X154412255Y-91816603D01*
X154993024Y-91576041D01*
X155133965Y-91307913D01*
X154000000Y-90173948D01*
X152866035Y-91307913D01*
X149275827Y-91307913D01*
X149547952Y-91036264D01*
X149826682Y-90365007D01*
X149827274Y-89685690D01*
X152163915Y-89685690D01*
X152183397Y-90412255D01*
X152423959Y-90993024D01*
X152692087Y-91133965D01*
X153826052Y-90000000D01*
X154173948Y-90000000D01*
X155307913Y-91133965D01*
X155576041Y-90993024D01*
X155836085Y-90314310D01*
X155816603Y-89587745D01*
X155576041Y-89006976D01*
X155307913Y-88866035D01*
X154173948Y-90000000D01*
X153826052Y-90000000D01*
X152692087Y-88866035D01*
X152423959Y-89006976D01*
X152163915Y-89685690D01*
X149827274Y-89685690D01*
X149827316Y-89638182D01*
X149549758Y-88966440D01*
X149275884Y-88692087D01*
X152866035Y-88692087D01*
X154000000Y-89826052D01*
X155133965Y-88692087D01*
X154993024Y-88423959D01*
X154314310Y-88163915D01*
X153587745Y-88183397D01*
X153006976Y-88423959D01*
X152866035Y-88692087D01*
X149275884Y-88692087D01*
X149036264Y-88452048D01*
X148365007Y-88173318D01*
X147638182Y-88172684D01*
X146966440Y-88450242D01*
X146452048Y-88963736D01*
X146173318Y-89634993D01*
X146172684Y-90361818D01*
X125602000Y-90361818D01*
X125602000Y-85921230D01*
X126372632Y-85921230D01*
X126695766Y-86703274D01*
X127293578Y-87302131D01*
X128075057Y-87626630D01*
X128921230Y-87627368D01*
X129703274Y-87304234D01*
X129972355Y-87035622D01*
X136438326Y-87035622D01*
X136567045Y-87293363D01*
X137209547Y-87536714D01*
X137896268Y-87515667D01*
X138432955Y-87293363D01*
X138561674Y-87035622D01*
X137500000Y-85973948D01*
X136438326Y-87035622D01*
X129972355Y-87035622D01*
X130302131Y-86706422D01*
X130626630Y-85924943D01*
X130626992Y-85509547D01*
X135763286Y-85509547D01*
X135784333Y-86196268D01*
X136006637Y-86732955D01*
X136264378Y-86861674D01*
X137326052Y-85800000D01*
X137673948Y-85800000D01*
X138735622Y-86861674D01*
X138993363Y-86732955D01*
X139236714Y-86090453D01*
X139215667Y-85403732D01*
X138993363Y-84867045D01*
X138735622Y-84738326D01*
X137673948Y-85800000D01*
X137326052Y-85800000D01*
X136264378Y-84738326D01*
X136006637Y-84867045D01*
X135763286Y-85509547D01*
X130626992Y-85509547D01*
X130627368Y-85078770D01*
X130414826Y-84564378D01*
X136438326Y-84564378D01*
X137500000Y-85626052D01*
X138526052Y-84600000D01*
X140762676Y-84600000D01*
X140762676Y-87000000D01*
X140799423Y-87195294D01*
X140914842Y-87374660D01*
X141090951Y-87494990D01*
X141300000Y-87537324D01*
X143700000Y-87537324D01*
X143895294Y-87500577D01*
X144074660Y-87385158D01*
X144194990Y-87209049D01*
X144237324Y-87000000D01*
X144237324Y-86607913D01*
X149866035Y-86607913D01*
X150006976Y-86876041D01*
X150685690Y-87136085D01*
X151412255Y-87116603D01*
X151993024Y-86876041D01*
X152133965Y-86607913D01*
X151000000Y-85473948D01*
X149866035Y-86607913D01*
X144237324Y-86607913D01*
X144237324Y-84985690D01*
X149163915Y-84985690D01*
X149183397Y-85712255D01*
X149423959Y-86293024D01*
X149692087Y-86433965D01*
X150826052Y-85300000D01*
X151173948Y-85300000D01*
X152307913Y-86433965D01*
X152576041Y-86293024D01*
X152836085Y-85614310D01*
X152816603Y-84887745D01*
X152576041Y-84306976D01*
X152307913Y-84166035D01*
X151173948Y-85300000D01*
X150826052Y-85300000D01*
X149692087Y-84166035D01*
X149423959Y-84306976D01*
X149163915Y-84985690D01*
X144237324Y-84985690D01*
X144237324Y-84600000D01*
X144200577Y-84404706D01*
X144085158Y-84225340D01*
X143909049Y-84105010D01*
X143700000Y-84062676D01*
X141300000Y-84062676D01*
X141104706Y-84099423D01*
X140925340Y-84214842D01*
X140805010Y-84390951D01*
X140762676Y-84600000D01*
X138526052Y-84600000D01*
X138561674Y-84564378D01*
X138432955Y-84306637D01*
X137790453Y-84063286D01*
X137103732Y-84084333D01*
X136567045Y-84306637D01*
X136438326Y-84564378D01*
X130414826Y-84564378D01*
X130304234Y-84296726D01*
X130000127Y-83992087D01*
X149866035Y-83992087D01*
X151000000Y-85126052D01*
X152133965Y-83992087D01*
X151993024Y-83723959D01*
X151314310Y-83463915D01*
X150587745Y-83483397D01*
X150006976Y-83723959D01*
X149866035Y-83992087D01*
X130000127Y-83992087D01*
X129706422Y-83697869D01*
X128924943Y-83373370D01*
X128078770Y-83372632D01*
X127296726Y-83695766D01*
X126697869Y-84293578D01*
X126373370Y-85075057D01*
X126372632Y-85921230D01*
X125602000Y-85921230D01*
X125602000Y-82602000D01*
X160398000Y-82602000D01*
X160398000Y-116398000D01*
X160398000Y-116398000D01*
G37*
X160398000Y-116398000D02*
X125602000Y-116398000D01*
X125602000Y-113921230D01*
X126372632Y-113921230D01*
X126695766Y-114703274D01*
X127293578Y-115302131D01*
X128075057Y-115626630D01*
X128921230Y-115627368D01*
X129703274Y-115304234D01*
X130302131Y-114706422D01*
X130626630Y-113924943D01*
X130627368Y-113078770D01*
X130305587Y-112300000D01*
X133762676Y-112300000D01*
X133762676Y-114700000D01*
X133799423Y-114895294D01*
X133914842Y-115074660D01*
X134090951Y-115194990D01*
X134300000Y-115237324D01*
X136700000Y-115237324D01*
X136895294Y-115200577D01*
X137074660Y-115085158D01*
X137194990Y-114909049D01*
X137230110Y-114735622D01*
X139438326Y-114735622D01*
X139567045Y-114993363D01*
X140209547Y-115236714D01*
X140896268Y-115215667D01*
X141432955Y-114993363D01*
X141561674Y-114735622D01*
X140500000Y-113673948D01*
X139438326Y-114735622D01*
X137230110Y-114735622D01*
X137237324Y-114700000D01*
X137237324Y-113209547D01*
X138763286Y-113209547D01*
X138784333Y-113896268D01*
X139006637Y-114432955D01*
X139264378Y-114561674D01*
X140326052Y-113500000D01*
X140673948Y-113500000D01*
X141735622Y-114561674D01*
X141993363Y-114432955D01*
X142236714Y-113790453D01*
X142215667Y-113103732D01*
X142057310Y-112721426D01*
X147272649Y-112721426D01*
X147580591Y-113466703D01*
X148150298Y-114037405D01*
X148895036Y-114346647D01*
X149701426Y-114347351D01*
X150446703Y-114039409D01*
X150565088Y-113921230D01*
X155372632Y-113921230D01*
X155695766Y-114703274D01*
X156293578Y-115302131D01*
X157075057Y-115626630D01*
X157921230Y-115627368D01*
X158703274Y-115304234D01*
X159302131Y-114706422D01*
X159626630Y-113924943D01*
X159627368Y-113078770D01*
X159304234Y-112296726D01*
X158706422Y-111697869D01*
X157924943Y-111373370D01*
X157078770Y-111372632D01*
X156296726Y-111695766D01*
X155697869Y-112293578D01*
X155373370Y-113075057D01*
X155372632Y-113921230D01*
X150565088Y-113921230D01*
X151017405Y-113469702D01*
X151326647Y-112724964D01*
X151327351Y-111918574D01*
X151019409Y-111173297D01*
X150449702Y-110602595D01*
X149704964Y-110293353D01*
X148898574Y-110292649D01*
X148153297Y-110600591D01*
X147582595Y-111170298D01*
X147273353Y-111915036D01*
X147272649Y-112721426D01*
X142057310Y-112721426D01*
X141993363Y-112567045D01*
X141735622Y-112438326D01*
X140673948Y-113500000D01*
X140326052Y-113500000D01*
X139264378Y-112438326D01*
X139006637Y-112567045D01*
X138763286Y-113209547D01*
X137237324Y-113209547D01*
X137237324Y-112300000D01*
X137230622Y-112264378D01*
X139438326Y-112264378D01*
X140500000Y-113326052D01*
X141561674Y-112264378D01*
X141432955Y-112006637D01*
X140790453Y-111763286D01*
X140103732Y-111784333D01*
X139567045Y-112006637D01*
X139438326Y-112264378D01*
X137230622Y-112264378D01*
X137200577Y-112104706D01*
X137085158Y-111925340D01*
X136909049Y-111805010D01*
X136700000Y-111762676D01*
X134300000Y-111762676D01*
X134104706Y-111799423D01*
X133925340Y-111914842D01*
X133805010Y-112090951D01*
X133762676Y-112300000D01*
X130305587Y-112300000D01*
X130304234Y-112296726D01*
X129706422Y-111697869D01*
X128924943Y-111373370D01*
X128078770Y-111372632D01*
X127296726Y-111695766D01*
X126697869Y-112293578D01*
X126373370Y-113075057D01*
X126372632Y-113921230D01*
X125602000Y-113921230D01*
X125602000Y-108909895D01*
X147064053Y-108909895D01*
X147137625Y-109120941D01*
X147617011Y-109289094D01*
X148124254Y-109260994D01*
X148462375Y-109120941D01*
X148535947Y-108909895D01*
X150064053Y-108909895D01*
X150137625Y-109120941D01*
X150617011Y-109289094D01*
X151124254Y-109260994D01*
X151462375Y-109120941D01*
X151535947Y-108909895D01*
X150800000Y-108173948D01*
X150064053Y-108909895D01*
X148535947Y-108909895D01*
X147800000Y-108173948D01*
X147064053Y-108909895D01*
X125602000Y-108909895D01*
X125602000Y-107817011D01*
X146510906Y-107817011D01*
X146539006Y-108324254D01*
X146679059Y-108662375D01*
X146890105Y-108735947D01*
X147626052Y-108000000D01*
X147973948Y-108000000D01*
X148709895Y-108735947D01*
X148920941Y-108662375D01*
X149089094Y-108182989D01*
X149068820Y-107817011D01*
X149510906Y-107817011D01*
X149539006Y-108324254D01*
X149679059Y-108662375D01*
X149890105Y-108735947D01*
X150626052Y-108000000D01*
X150973948Y-108000000D01*
X151709895Y-108735947D01*
X151920941Y-108662375D01*
X152089094Y-108182989D01*
X152060994Y-107675746D01*
X151920941Y-107337625D01*
X151709895Y-107264053D01*
X150973948Y-108000000D01*
X150626052Y-108000000D01*
X149890105Y-107264053D01*
X149679059Y-107337625D01*
X149510906Y-107817011D01*
X149068820Y-107817011D01*
X149060994Y-107675746D01*
X148920941Y-107337625D01*
X148709895Y-107264053D01*
X147973948Y-108000000D01*
X147626052Y-108000000D01*
X146890105Y-107264053D01*
X146679059Y-107337625D01*
X146510906Y-107817011D01*
X125602000Y-107817011D01*
X125602000Y-107090105D01*
X147064053Y-107090105D01*
X147800000Y-107826052D01*
X148535947Y-107090105D01*
X150064053Y-107090105D01*
X150800000Y-107826052D01*
X151535947Y-107090105D01*
X151462375Y-106879059D01*
X150982989Y-106710906D01*
X150475746Y-106739006D01*
X150137625Y-106879059D01*
X150064053Y-107090105D01*
X148535947Y-107090105D01*
X148462375Y-106879059D01*
X147982989Y-106710906D01*
X147475746Y-106739006D01*
X147137625Y-106879059D01*
X147064053Y-107090105D01*
X125602000Y-107090105D01*
X125602000Y-105252897D01*
X146522779Y-105252897D01*
X146716781Y-105722417D01*
X147075693Y-106081957D01*
X147544875Y-106276778D01*
X148052897Y-106277221D01*
X148522417Y-106083219D01*
X148881957Y-105724307D01*
X149076778Y-105255125D01*
X149076779Y-105252897D01*
X149522779Y-105252897D01*
X149716781Y-105722417D01*
X150075693Y-106081957D01*
X150544875Y-106276778D01*
X151052897Y-106277221D01*
X151522417Y-106083219D01*
X151881957Y-105724307D01*
X152076778Y-105255125D01*
X152077221Y-104747103D01*
X151883219Y-104277583D01*
X151524307Y-103918043D01*
X151055125Y-103723222D01*
X150547103Y-103722779D01*
X150077583Y-103916781D01*
X149718043Y-104275693D01*
X149523222Y-104744875D01*
X149522779Y-105252897D01*
X149076779Y-105252897D01*
X149077221Y-104747103D01*
X148883219Y-104277583D01*
X148524307Y-103918043D01*
X148055125Y-103723222D01*
X147547103Y-103722779D01*
X147077583Y-103916781D01*
X146718043Y-104275693D01*
X146523222Y-104744875D01*
X146522779Y-105252897D01*
X125602000Y-105252897D01*
X125602000Y-90361818D01*
X146172684Y-90361818D01*
X146450242Y-91033560D01*
X146963736Y-91547952D01*
X147634993Y-91826682D01*
X148361818Y-91827316D01*
X149033560Y-91549758D01*
X149275827Y-91307913D01*
X152866035Y-91307913D01*
X153006976Y-91576041D01*
X153685690Y-91836085D01*
X154412255Y-91816603D01*
X154993024Y-91576041D01*
X155133965Y-91307913D01*
X154000000Y-90173948D01*
X152866035Y-91307913D01*
X149275827Y-91307913D01*
X149547952Y-91036264D01*
X149826682Y-90365007D01*
X149827274Y-89685690D01*
X152163915Y-89685690D01*
X152183397Y-90412255D01*
X152423959Y-90993024D01*
X152692087Y-91133965D01*
X153826052Y-90000000D01*
X154173948Y-90000000D01*
X155307913Y-91133965D01*
X155576041Y-90993024D01*
X155836085Y-90314310D01*
X155816603Y-89587745D01*
X155576041Y-89006976D01*
X155307913Y-88866035D01*
X154173948Y-90000000D01*
X153826052Y-90000000D01*
X152692087Y-88866035D01*
X152423959Y-89006976D01*
X152163915Y-89685690D01*
X149827274Y-89685690D01*
X149827316Y-89638182D01*
X149549758Y-88966440D01*
X149275884Y-88692087D01*
X152866035Y-88692087D01*
X154000000Y-89826052D01*
X155133965Y-88692087D01*
X154993024Y-88423959D01*
X154314310Y-88163915D01*
X153587745Y-88183397D01*
X153006976Y-88423959D01*
X152866035Y-88692087D01*
X149275884Y-88692087D01*
X149036264Y-88452048D01*
X148365007Y-88173318D01*
X147638182Y-88172684D01*
X146966440Y-88450242D01*
X146452048Y-88963736D01*
X146173318Y-89634993D01*
X146172684Y-90361818D01*
X125602000Y-90361818D01*
X125602000Y-85921230D01*
X126372632Y-85921230D01*
X126695766Y-86703274D01*
X127293578Y-87302131D01*
X128075057Y-87626630D01*
X128921230Y-87627368D01*
X129703274Y-87304234D01*
X129972355Y-87035622D01*
X136438326Y-87035622D01*
X136567045Y-87293363D01*
X137209547Y-87536714D01*
X137896268Y-87515667D01*
X138432955Y-87293363D01*
X138561674Y-87035622D01*
X137500000Y-85973948D01*
X136438326Y-87035622D01*
X129972355Y-87035622D01*
X130302131Y-86706422D01*
X130626630Y-85924943D01*
X130626992Y-85509547D01*
X135763286Y-85509547D01*
X135784333Y-86196268D01*
X136006637Y-86732955D01*
X136264378Y-86861674D01*
X137326052Y-85800000D01*
X137673948Y-85800000D01*
X138735622Y-86861674D01*
X138993363Y-86732955D01*
X139236714Y-86090453D01*
X139215667Y-85403732D01*
X138993363Y-84867045D01*
X138735622Y-84738326D01*
X137673948Y-85800000D01*
X137326052Y-85800000D01*
X136264378Y-84738326D01*
X136006637Y-84867045D01*
X135763286Y-85509547D01*
X130626992Y-85509547D01*
X130627368Y-85078770D01*
X130414826Y-84564378D01*
X136438326Y-84564378D01*
X137500000Y-85626052D01*
X138526052Y-84600000D01*
X140762676Y-84600000D01*
X140762676Y-87000000D01*
X140799423Y-87195294D01*
X140914842Y-87374660D01*
X141090951Y-87494990D01*
X141300000Y-87537324D01*
X143700000Y-87537324D01*
X143895294Y-87500577D01*
X144074660Y-87385158D01*
X144194990Y-87209049D01*
X144237324Y-87000000D01*
X144237324Y-86607913D01*
X149866035Y-86607913D01*
X150006976Y-86876041D01*
X150685690Y-87136085D01*
X151412255Y-87116603D01*
X151993024Y-86876041D01*
X152133965Y-86607913D01*
X151000000Y-85473948D01*
X149866035Y-86607913D01*
X144237324Y-86607913D01*
X144237324Y-84985690D01*
X149163915Y-84985690D01*
X149183397Y-85712255D01*
X149423959Y-86293024D01*
X149692087Y-86433965D01*
X150826052Y-85300000D01*
X151173948Y-85300000D01*
X152307913Y-86433965D01*
X152576041Y-86293024D01*
X152836085Y-85614310D01*
X152816603Y-84887745D01*
X152576041Y-84306976D01*
X152307913Y-84166035D01*
X151173948Y-85300000D01*
X150826052Y-85300000D01*
X149692087Y-84166035D01*
X149423959Y-84306976D01*
X149163915Y-84985690D01*
X144237324Y-84985690D01*
X144237324Y-84600000D01*
X144200577Y-84404706D01*
X144085158Y-84225340D01*
X143909049Y-84105010D01*
X143700000Y-84062676D01*
X141300000Y-84062676D01*
X141104706Y-84099423D01*
X140925340Y-84214842D01*
X140805010Y-84390951D01*
X140762676Y-84600000D01*
X138526052Y-84600000D01*
X138561674Y-84564378D01*
X138432955Y-84306637D01*
X137790453Y-84063286D01*
X137103732Y-84084333D01*
X136567045Y-84306637D01*
X136438326Y-84564378D01*
X130414826Y-84564378D01*
X130304234Y-84296726D01*
X130000127Y-83992087D01*
X149866035Y-83992087D01*
X151000000Y-85126052D01*
X152133965Y-83992087D01*
X151993024Y-83723959D01*
X151314310Y-83463915D01*
X150587745Y-83483397D01*
X150006976Y-83723959D01*
X149866035Y-83992087D01*
X130000127Y-83992087D01*
X129706422Y-83697869D01*
X128924943Y-83373370D01*
X128078770Y-83372632D01*
X127296726Y-83695766D01*
X126697869Y-84293578D01*
X126373370Y-85075057D01*
X126372632Y-85921230D01*
X125602000Y-85921230D01*
X125602000Y-82602000D01*
X160398000Y-82602000D01*
X160398000Y-116398000D01*
M02*
